# File created by Blade
# Date/Time:  Mon Sep 22 16:45:27 2014
# Frame Rate: 120.000 fps
#------------------------------------------------------
:FULLY-SPECIFIED
:DEGREES
3375
root 5.212241 39.766080 -1.015591 38.179760 18.414189 56.273242
RightUpLeg -13.074495 -21.884528 -47.920307
RightLeg 20.280010 -0.000000 -0.000000
RightFoot -23.058642 -10.081244 20.314505
RightToeBase 10.769368 -0.000000 -0.000000
LeftUpLeg 6.894644 14.100644 24.709681
LeftLeg 115.016892 -0.000000 -0.000000
LeftFoot 28.266677 17.850058 -30.567624
LeftToeBase -3.534246 -0.000000 0.000000
Spine 0.477109 -11.195500 -13.312869
RightShoulder -3.531141 -10.384820 -32.615605
RightArm -19.970156 68.542759 33.360807
RightForeArm -17.646490 -0.000000 139.940274
RightHand -9.748826 -0.000000 -28.512577
RightHandThumb1 -24.326973 -0.000000 -32.862282
LeftShoulder -24.586714 30.483461 -18.806338
LeftArm 35.255024 -3.026283 -56.315826
LeftForeArm 29.010707 -0.000000 96.268037
LeftHand -14.704757 -0.000000 0.149648
LeftHandThumb1 -26.253704 0.000000 33.147579
Head -0.532877 -18.394809 -28.310649
3376
root 5.223651 39.770747 -1.015529 38.113545 18.377349 56.237820
RightUpLeg -13.056053 -21.790088 -47.901462
RightLeg 20.204608 -0.000000 -0.000000
RightFoot -22.889816 -10.330184 20.016743
RightToeBase 10.464965 -0.000000 -0.000000
LeftUpLeg 6.876684 14.023323 24.465707
LeftLeg 115.016754 -0.000000 -0.000000
LeftFoot 28.245524 17.814958 -30.550144
LeftToeBase -3.131073 -0.000000 0.000000
Spine 0.533644 -11.247287 -13.349829
RightShoulder -3.625117 -10.418804 -32.540542
RightArm -19.641565 68.264405 33.553880
RightForeArm -17.504855 0.000000 140.047588
RightHand -9.648442 -0.000000 -28.583313
RightHandThumb1 -24.326973 -0.000000 -32.862282
LeftShoulder -24.587293 30.369099 -18.637236
LeftArm 35.087411 -3.220244 -56.572968
LeftForeArm 28.980500 -0.000000 96.257305
LeftHand -14.741528 -0.000000 0.491669
LeftHandThumb1 -26.253704 0.000000 33.147579
Head -0.797955 -18.391007 -28.138717
3377
root 5.236442 39.774315 -1.010838 38.031076 18.372466 56.212410
RightUpLeg -12.969950 -21.657400 -47.894972
RightLeg 20.115245 -0.000000 -0.000000
RightFoot -22.812811 -10.562704 19.861645
RightToeBase 10.252656 -0.000000 -0.000000
LeftUpLeg 6.924097 14.025710 24.438792
LeftLeg 114.995953 -0.000000 -0.000000
LeftFoot 28.291101 17.762285 -30.316820
LeftToeBase -2.846335 -0.000000 0.000000
Spine 0.615372 -11.306542 -13.373192
RightShoulder -3.739168 -10.493677 -32.458716
RightArm -19.329242 67.993541 33.721856
RightForeArm -17.297948 -0.000000 140.192679
RightHand -9.484535 0.000000 -28.409682
RightHandThumb1 -24.326973 -0.000000 -32.862282
LeftShoulder -24.540940 30.264035 -18.473070
LeftArm 34.917266 -3.414925 -56.791349
LeftForeArm 28.921170 -0.000000 96.307738
LeftHand -14.952329 -0.000000 0.651536
LeftHandThumb1 -26.253704 0.000000 33.147579
Head -1.078030 -18.270225 -27.959685
3378
root 5.250947 39.779399 -1.007036 37.966062 18.399221 56.246543
RightUpLeg -12.816571 -21.521252 -47.952556
RightLeg 20.016183 -0.000000 -0.000000
RightFoot -22.720840 -10.774684 19.703149
RightToeBase 10.017203 -0.000000 -0.000000
LeftUpLeg 6.901800 13.897148 24.196345
LeftLeg 114.975793 -0.000000 -0.000000
LeftFoot 28.384083 17.794537 -30.214875
LeftToeBase -3.920241 -0.000000 0.000000
Spine 0.720076 -11.415875 -13.422697
RightShoulder -3.853800 -10.564556 -32.379196
RightArm -18.999409 67.804262 33.909614
RightForeArm -16.960979 -0.000000 140.323552
RightHand -9.337211 0.000000 -28.597611
RightHandThumb1 -24.326973 -0.000000 -32.862282
LeftShoulder -24.525721 30.210697 -18.346208
LeftArm 34.832801 -3.647286 -57.021942
LeftForeArm 28.849922 -0.000000 96.349841
LeftHand -14.864046 -0.000000 0.548957
LeftHandThumb1 -26.253704 0.000000 33.147579
Head -1.358886 -18.217628 -27.828570
3379
root 5.260699 39.781087 -1.005439 37.909400 18.450064 56.265097
RightUpLeg -12.668924 -21.273984 -47.991333
RightLeg 19.934347 -0.000000 -0.000000
RightFoot -22.715677 -11.043692 19.632505
RightToeBase 9.874562 -0.000000 -0.000000
LeftUpLeg 6.839807 13.785167 23.998655
LeftLeg 114.976997 -0.000000 -0.000000
LeftFoot 28.561859 17.770900 -30.001720
LeftToeBase -4.404281 -0.000000 0.000000
Spine 0.830900 -11.503207 -13.443771
RightShoulder -3.990169 -10.622267 -32.303395
RightArm -18.904016 67.529684 33.876552
RightForeArm -16.793038 -0.000000 140.466666
RightHand -9.317056 0.000000 -28.598521
RightHandThumb1 -24.326973 -0.000000 -32.862282
LeftShoulder -24.580097 30.199239 -18.271685
LeftArm 34.929171 -3.844183 -57.166474
LeftForeArm 28.899762 -0.000000 96.333380
LeftHand -15.033743 -0.000000 0.576905
LeftHandThumb1 -26.253704 0.000000 33.147579
Head -1.627937 -18.222911 -27.733915
3380
root 5.268435 39.781197 -1.003480 37.885840 18.554694 56.297027
RightUpLeg -12.507362 -21.115730 -48.012250
RightLeg 19.872737 -0.000000 -0.000000
RightFoot -22.693482 -11.223853 19.567255
RightToeBase 9.679340 -0.000000 -0.000000
LeftUpLeg 6.732950 13.654636 23.834449
LeftLeg 115.011315 -0.000000 -0.000000
LeftFoot 28.543382 17.729443 -29.962239
LeftToeBase -4.070540 -0.000000 0.000000
Spine 0.908405 -11.637662 -13.435904
RightShoulder -4.087304 -10.678453 -32.217646
RightArm -18.965619 67.391130 33.707674
RightForeArm -16.388631 -0.000000 140.577174
RightHand -9.103954 -0.000000 -28.653557
RightHandThumb1 -24.326973 -0.000000 -32.862282
LeftShoulder -24.607292 30.218928 -18.185102
LeftArm 35.025334 -4.030763 -57.321356
LeftForeArm 28.872370 -0.000000 96.327054
LeftHand -14.994060 -0.000000 0.507084
LeftHandThumb1 -26.253704 0.000000 33.147579
Head -1.841386 -18.206268 -27.650510
3381
root 5.276016 39.780857 -1.000422 37.861791 18.657799 56.350604
RightUpLeg -12.329434 -20.889693 -48.063934
RightLeg 19.818387 -0.000000 -0.000000
RightFoot -22.692160 -11.420092 19.505953
RightToeBase 9.394592 -0.000000 -0.000000
LeftUpLeg 6.629460 13.538909 23.662057
LeftLeg 115.026616 -0.000000 -0.000000
LeftFoot 28.573079 17.735442 -29.879052
LeftToeBase -4.059191 -0.000000 0.000000
Spine 0.992724 -11.786488 -13.460432
RightShoulder -4.176714 -10.798940 -32.087737
RightArm -18.876060 67.264030 33.610710
RightForeArm -16.142379 0.000000 140.698673
RightHand -9.070138 -0.000000 -28.678569
RightHandThumb1 -24.326973 -0.000000 -32.862282
LeftShoulder -24.617657 30.262465 -18.092444
LeftArm 35.129924 -4.198919 -57.440542
LeftForeArm 28.983498 -0.000000 96.348012
LeftHand -15.219178 -0.000000 0.754129
LeftHandThumb1 -26.253704 0.000000 33.147579
Head -2.028524 -18.127472 -27.555872
